# xmcd
#
# Track frame offsets:
#	150
#	16232
#	29005
#	48340
#	67442
#	85265
#	99410
#	116747
#	133162
#	150945
#
# Disc length: 2262 seconds
#
# Revision: 2
# Processed by: cddbd v1.5.2PL0 Copyright (c) Steve Scherf et al.
# Submitted via: audiograbber 1.83.01
#
DISCID=8408d40a
DTITLE=Dan Seals - On Arrival
DYEAR=1990
DGENRE=Country
TTITLE0=Good Times
TTITLE1=Made For Lovin' You
TTITLE2=She Flew The Coupe
TTITLE3=Wood
TTITLE4=Bordertown
TTITLE5=Water Under The Bridge
TTITLE6=Love On Arrival
TTITLE7=A Heart In Search Of Love
TTITLE8=Lonestar
TTITLE9=Game Of Love
EXTD=
EXTT0=
EXTT1=
EXTT2=
EXTT3=
EXTT4=
EXTT5=
EXTT6=
EXTT7=
EXTT8=
EXTT9=
PLAYORDER=
